<svg xmlns="http://www.w3.org/2000/svg" width="143" height="17" viewBox="0 0 143 17" fill="#A8B8A7">
  <path d="M0 17C8.05296 17 12.2337 13.6585 15.9175 10.7111C19.3443 7.96929 22.3255 5.58738 28.5109 5.58738C34.6963 5.58738 37.6604 7.95215 41.1044 10.7111C44.7882 13.6585 48.9518 17 57.0047 17C65.0577 17 69.2383 13.6585 72.9221 10.7111C76.3489 7.96929 79.3131 5.58738 85.5156 5.58738C91.7181 5.58738 94.6823 7.96929 98.1262 10.7111C101.81 13.6585 105.991 17 114.061 17C122.131 17 126.294 13.6756 129.961 10.7282C134.193 7.35239 140.79 6.34136 143 1.09772C132.343 -3.92315 121.051 15.3035 107.91 10.3512C102.29 8.22633 97.972 3.53104 92.4034 1.32048C87.7259 -0.530214 82.3287 -0.427394 77.7197 1.57753C71.0374 4.49066 65.8972 11.1909 58.6324 11.8078C49.9284 12.5446 43.2632 4.30217 35.0218 1.35476C29.7617 -0.530206 23.7134 -0.118938 18.7446 2.46861C14.5639 4.64489 11.2056 8.3977 6.85358 10.2484C1.64486 12.4761 0.0171507 10.7282 0.0171507 17" fill="#A8B8A7"/>
</svg>