<svg width="190" height="38" viewBox="0 0 257 38" fill="none" xmlns="http://www.w3.org/2000/svg">
<path d="M255.464 3.29981C255.464 3.38337 255.44 3.46692 255.422 3.55047C255.332 3.95631 255.093 4.23084 254.693 4.35021C254.49 4.40989 254.281 4.45763 254.072 4.48151C253.612 4.54119 253.152 4.58893 252.686 4.63668C250.792 4.81572 250.284 4.97687 248.378 5.02461C248.085 5.03058 247.786 5.02461 247.488 5.02461V5.04848C246.896 5.03058 246.305 5.02461 245.713 4.99477C243.73 4.89928 243.556 4.73814 241.579 4.52329C241.244 4.48748 240.904 4.45167 240.581 4.34424C240.181 4.21294 239.942 3.93244 239.882 3.52063C239.792 2.8522 239.786 2.17182 239.888 1.50339C239.948 1.09159 240.204 0.817052 240.611 0.703657C240.856 0.638007 241.107 0.584293 241.358 0.554453C241.985 0.476866 242.618 0.405247 243.252 0.357502C244.769 0.244107 244.476 0.130712 245.994 0.0411899C247.093 -0.0244599 248.193 -0.00655612 249.292 0.0590937C251.108 0.160553 251.532 0.285885 253.343 0.488802C253.719 0.53058 254.096 0.584299 254.472 0.643981C254.597 0.667853 254.717 0.709629 254.83 0.763342C255.117 0.888674 255.308 1.10353 255.38 1.41387C255.41 1.53323 255.446 1.66453 255.446 1.78389C255.452 2.29119 255.446 2.79848 255.446 3.30578" fill="#977052"/>
<path d="M0.034091 23.1084C-0.0376051 20.5719 0.0101923 18.0294 0.117736 15.493C0.14761 14.8186 0.159559 14.1382 0.189433 13.4638C0.201382 13.1654 0.207357 12.8729 0.243205 12.5745C0.332825 11.7987 0.637533 11.1064 1.14538 10.5155C1.48594 10.1216 1.89819 9.84112 2.40006 9.67998C2.92583 9.51287 3.46355 9.39947 4.0192 9.38753C4.31793 9.3756 4.61069 9.38156 4.90943 9.37559C7.02446 9.35769 9.14547 9.33979 11.2605 9.32188C11.852 9.32188 12.4495 9.31592 13.041 9.31592C13.2501 9.31592 13.4652 9.31591 13.6743 9.33979C14.4629 9.4114 15.1381 9.73369 15.7057 10.2828C16.1717 10.7304 16.4943 11.2735 16.7214 11.8763C16.8707 12.2761 16.9663 12.6879 17.0141 13.1057C17.1993 14.6216 17.3069 16.1375 17.283 17.6654C17.283 17.916 17.2591 18.1727 17.2292 18.4233C17.1934 18.7396 16.8946 19.056 16.578 19.1276C16.4943 19.1455 16.4107 19.1694 16.327 19.1753C15.4786 19.2231 14.6362 19.2171 13.7878 19.1753C13.262 19.1515 12.9035 18.8292 12.8498 18.3159C12.8079 17.8981 12.79 17.4744 12.7661 17.0507C12.7422 16.6269 12.7422 16.2032 12.7123 15.7854C12.6885 15.4452 12.5809 15.1229 12.4076 14.8245C12.097 14.2814 11.6369 13.9353 11.0275 13.7801C10.7407 13.7085 10.442 13.6786 10.1492 13.6786C9.13352 13.6786 8.11783 13.6786 7.09616 13.6786C6.88704 13.6786 6.67195 13.7025 6.46284 13.7383C5.42325 13.9174 4.63459 14.7589 4.52107 15.8093C4.49717 16.0182 4.4912 16.233 4.48522 16.4419C4.47327 17.2476 4.45535 18.0533 4.46132 18.853C4.46132 20.5898 4.44938 22.3206 4.3956 24.0573C4.38365 24.481 4.37768 24.9048 4.38365 25.3285C4.40755 26.9757 4.43145 28.6289 4.45535 30.2761C4.45535 30.5745 4.47327 30.867 4.5151 31.1594C4.61069 31.8338 4.97515 32.3292 5.56664 32.6574C5.7877 32.7827 6.02669 32.8842 6.27763 32.926C6.57038 32.9797 6.86314 33.0334 7.1559 33.0453C7.83104 33.0692 8.51215 33.0812 9.18729 33.0752C9.52785 33.0752 9.86243 33.0334 10.197 32.9857C10.4061 32.9558 10.6152 32.9021 10.8124 32.8305C11.625 32.544 12.1627 31.983 12.4256 31.1594C12.557 30.7536 12.6168 30.3358 12.6407 29.9121C12.6705 29.4465 12.6944 28.981 12.7362 28.5215C12.7542 28.3126 12.796 28.1037 12.8557 27.9008C12.9454 27.5904 13.1724 27.3995 13.4831 27.3457C13.6922 27.3099 13.9013 27.2801 14.1164 27.2861C14.7915 27.2861 15.4726 27.298 16.1478 27.3219C16.8349 27.3457 17.2113 27.7456 17.2471 28.4618C17.2591 28.6707 17.2651 28.8855 17.2591 29.0944C17.2471 29.4346 17.2352 29.7748 17.2053 30.109C17.1097 31.2907 17.0081 32.4724 16.9006 33.6481C16.8707 33.9823 16.811 34.3166 16.7512 34.6508C16.6556 35.1521 16.4824 35.6296 16.2255 36.0712C15.9327 36.5725 15.5025 36.8948 14.9349 37.0261C14.5645 37.1156 14.1881 37.1634 13.8057 37.1753C13.507 37.1873 13.2142 37.1873 12.9155 37.1873C9.91023 37.1873 6.89899 37.1873 3.89373 37.1873C3.55317 37.1873 3.21262 37.1872 2.87804 37.1634C2.35226 37.1276 1.89819 36.9247 1.50984 36.5666C0.936267 36.0294 0.553888 35.3849 0.380622 34.6209C0.314901 34.3345 0.261129 34.042 0.23723 33.7436C0.189433 33.0692 0.129686 32.3948 0.129686 31.7144C0.129686 29.3451 0.0639644 26.9757 0.0221417 24.6064C0.016167 24.0991 0.0221417 23.5918 0.0221417 23.0845" fill="#977052"/>
<path d="M41.7021 20.8882C42.5087 20.8882 43.3153 20.8882 44.1159 20.8882C44.4564 20.8882 44.791 20.8703 45.1256 20.7867C45.5139 20.6853 45.8127 20.4704 46.0278 20.1362C46.1413 19.9572 46.2309 19.7602 46.2667 19.5513C46.3086 19.3007 46.3564 19.05 46.3564 18.7993C46.3564 17.8683 46.3444 16.9373 46.3325 16.0062C46.3325 15.8391 46.3026 15.666 46.2727 15.5049C46.0875 14.5202 45.251 13.7562 44.2593 13.6667C44.0083 13.6428 43.7514 13.6369 43.5005 13.6369C42.2697 13.6369 41.0449 13.6369 39.8141 13.6369C39.5572 13.6369 39.3062 13.6488 39.0553 13.6727C38.7148 13.7025 38.3981 13.8219 38.1053 14.0069C37.6214 14.3172 37.3107 14.7589 37.1434 15.308C37.0538 15.5944 37.012 15.8869 37.012 16.1853C37.012 17.1163 37.012 18.0473 37.012 18.9784C37.012 19.229 37.0598 19.4857 37.1374 19.7244C37.3406 20.3451 37.7588 20.7211 38.4041 20.8285C38.6968 20.8763 38.9956 20.8942 39.2883 20.8942C40.0949 20.9001 40.8955 20.8942 41.7021 20.8942M32.4234 23.7052C32.4115 22.7741 32.3876 21.8431 32.3876 20.9121C32.3876 19.8139 32.3995 18.7098 32.4294 17.6117C32.4652 16.2151 32.525 14.8186 32.5728 13.428C32.5788 13.1714 32.5847 12.9207 32.6086 12.6641C32.6863 11.8882 32.9492 11.1839 33.4331 10.5692C33.7856 10.1276 34.2218 9.8053 34.7595 9.62626C35.2853 9.45318 35.823 9.34575 36.3787 9.32785C36.7192 9.31591 37.0598 9.31592 37.3944 9.31592C40.2323 9.31592 43.0703 9.31592 45.9083 9.31592C46.2906 9.31592 46.673 9.31592 47.0494 9.33382C47.6051 9.35769 48.1428 9.46512 48.6626 9.65013C49.1525 9.82918 49.5588 10.1216 49.8814 10.5275C50.2519 10.9989 50.5147 11.5301 50.6462 12.115C50.7298 12.491 50.7716 12.867 50.7836 13.2489C50.8911 16.7582 50.9927 20.2675 50.921 23.7827C50.8911 25.3046 50.8314 26.8265 50.7478 28.3484C50.6761 29.7032 50.6283 31.052 50.5984 32.4067C50.5745 33.5944 50.4669 34.7701 50.3415 35.9459C50.3235 36.113 50.2817 36.2801 50.228 36.4412C50.1264 36.7396 49.9053 36.9306 49.6006 37.0142C49.4811 37.044 49.3497 37.0739 49.2242 37.0739C48.5491 37.0739 47.868 37.0739 47.1928 37.0739C47.151 37.0739 47.1092 37.0679 47.0673 37.0619C46.4878 36.9784 46.2189 36.6382 46.1592 36.1548C46.1234 35.8205 46.1174 35.4803 46.1174 35.1402C46.1174 33.2781 46.1353 31.416 46.1353 29.554C46.1353 28.8796 46.1234 28.1992 46.0995 27.5248C46.0875 27.2323 46.0517 26.9339 45.9979 26.6415C45.8844 26.0327 45.4303 25.5911 44.8029 25.4777C44.6357 25.4479 44.4684 25.418 44.3011 25.4121C44.0501 25.3942 43.7932 25.3941 43.5363 25.3941C42.2637 25.3941 40.9971 25.3941 39.7245 25.3941C39.4735 25.3941 39.2166 25.3942 38.9657 25.418C38.7984 25.43 38.6311 25.4598 38.4638 25.5016C37.8783 25.6508 37.4959 26.0089 37.3585 26.5997C37.2928 26.8862 37.2569 27.1846 37.239 27.477C37.2151 27.9008 37.2091 28.3245 37.2091 28.7483C37.2091 30.7357 37.2091 32.7231 37.2091 34.7164C37.2091 35.0984 37.2091 35.4804 37.1972 35.8563C37.1972 36.0235 37.1673 36.1906 37.1315 36.3577C37.0657 36.674 36.8626 36.8829 36.5639 36.9903C36.4444 37.0321 36.3189 37.0679 36.1934 37.0739C35.4765 37.1216 34.7535 37.1216 34.0366 37.0739C33.9111 37.0679 33.7856 37.0321 33.6662 36.9903C33.4092 36.9067 33.224 36.7277 33.1404 36.477C33.0747 36.2801 33.0269 36.0712 32.997 35.8623C32.8775 34.9373 32.7939 34.0122 32.7759 33.0811C32.7401 31.1773 32.6325 29.2735 32.5429 27.3756C32.4832 26.1521 32.4413 24.9227 32.3935 23.6992C32.3995 23.6992 32.4115 23.6992 32.4174 23.6992" fill="#977052"/>
<path d="M73.7557 37.6461C71.9753 37.6461 70.1948 37.6461 68.4144 37.6461C68.032 37.6461 67.6496 37.6402 67.2732 37.6282C67.0163 37.6223 66.7654 37.5745 66.5264 37.485C66.0185 37.2881 65.7198 36.8882 65.7497 36.3033C65.7557 36.178 65.7736 36.0467 65.8035 35.9273C65.8513 35.7244 65.911 35.5155 65.9767 35.3186C66.7953 32.8716 67.572 30.4068 68.4682 27.9837C68.97 26.6349 69.4898 25.292 70.0216 23.9552C70.5892 22.5407 71.2344 21.1621 71.9335 19.8073C72.746 18.2257 73.5466 16.6382 74.3472 15.0507C74.4428 14.8597 74.5265 14.6687 74.5922 14.4658C74.7296 14.0659 74.4548 13.7914 74.1083 13.7317C73.9828 13.7078 73.8573 13.7019 73.7259 13.7019C73.5168 13.7019 73.3017 13.7019 73.0926 13.7019C71.0193 13.7257 68.9402 13.6661 66.8669 13.6123C66.5742 13.6064 66.2755 13.5825 65.9827 13.5288C65.672 13.4691 65.4569 13.2662 65.3494 12.9678C65.3195 12.8902 65.2956 12.8066 65.2837 12.7231C65.1881 11.9233 65.194 11.1176 65.2657 10.3179C65.2717 10.2344 65.3076 10.1568 65.3374 10.0792C65.4211 9.87627 65.5704 9.7211 65.7796 9.64948C65.9409 9.59577 66.1022 9.54802 66.2695 9.53012C66.6459 9.48834 67.0283 9.4585 67.4106 9.44657C69.4002 9.36898 71.3898 9.29736 73.3793 9.30929C75.2434 9.31526 77.1075 9.43463 78.9597 9.61367C79.1688 9.63158 79.3779 9.67932 79.587 9.7211C79.9694 9.80465 80.2442 10.1508 80.2383 10.5507C80.2383 10.676 80.2383 10.8073 80.2263 10.9326C80.1427 11.434 80.077 11.9353 79.9694 12.4366C79.7185 13.5944 79.366 14.7284 78.9776 15.8504C78.3981 17.5334 77.7289 19.1806 77.0119 20.804C76.2472 22.5467 75.4765 24.2894 74.7177 26.0381C74.413 26.7363 74.1322 27.4465 73.8513 28.1568C73.3853 29.3385 72.9432 30.5261 72.4174 31.6839C72.3457 31.8391 72.292 32.0003 72.2442 32.1614C72.1964 32.3225 72.1904 32.4956 72.2262 32.6627C72.28 32.9313 72.4294 33.1282 72.6684 33.2476C72.8177 33.3192 72.985 33.3789 73.1523 33.3908C73.4869 33.4267 73.8274 33.4386 74.168 33.4386C75.6915 33.4505 77.2151 33.4863 78.7446 33.4386C79.0852 33.4267 79.4197 33.4326 79.7603 33.4386C79.9276 33.4386 80.1009 33.4505 80.2682 33.4684C80.782 33.5341 81.1106 33.8743 81.2241 34.3517C81.254 34.4771 81.2779 34.6024 81.2838 34.7277C81.3197 35.4081 81.2779 36.0825 81.1644 36.7509C81.1524 36.8345 81.1285 36.918 81.0986 36.9956C80.9672 37.3418 80.7162 37.5566 80.3578 37.6223C80.1546 37.664 79.9395 37.67 79.7245 37.67C77.7349 37.6581 75.7393 37.6461 73.7498 37.6342C73.7498 37.6342 73.7498 37.6402 73.7498 37.6461" fill="#977052"/>
<path d="M104.8 20.8882C105.607 20.8882 106.413 20.8882 107.214 20.8882C107.555 20.8882 107.889 20.8703 108.224 20.7867C108.612 20.6853 108.911 20.4704 109.126 20.1362C109.239 19.9572 109.329 19.7602 109.365 19.5513C109.407 19.3007 109.454 19.05 109.454 18.7993C109.454 17.8683 109.443 16.9373 109.431 16.0062C109.431 15.8391 109.401 15.666 109.371 15.5049C109.186 14.5202 108.349 13.7562 107.357 13.6667C107.106 13.6428 106.85 13.6369 106.599 13.6369C105.368 13.6369 104.143 13.6369 102.912 13.6369C102.655 13.6369 102.404 13.6488 102.153 13.6727C101.813 13.7025 101.496 13.8219 101.203 14.0069C100.719 14.3172 100.409 14.7589 100.242 15.308C100.152 15.5944 100.11 15.8869 100.11 16.1853C100.11 17.1163 100.11 18.0473 100.11 18.9784C100.11 19.229 100.158 19.4857 100.236 19.7244C100.439 20.3451 100.857 20.7211 101.502 20.8285C101.795 20.8763 102.094 20.8942 102.386 20.8942C103.193 20.9001 103.994 20.8942 104.8 20.8942M95.5215 23.7052C95.5096 22.7741 95.4857 21.8431 95.4857 20.9121C95.4857 19.8139 95.4976 18.7098 95.5275 17.6117C95.5634 16.2151 95.6231 14.8186 95.6709 13.428C95.6829 13.1714 95.6828 12.9207 95.7067 12.6641C95.7844 11.8882 96.0473 11.1839 96.5372 10.5692C96.8897 10.1276 97.3259 9.8053 97.8636 9.62626C98.3894 9.45318 98.9271 9.34575 99.4827 9.32785C99.8233 9.31591 100.158 9.31592 100.498 9.31592C103.336 9.31592 106.174 9.31592 109.012 9.31592C109.395 9.31592 109.777 9.31592 110.154 9.33382C110.709 9.35769 111.247 9.46512 111.767 9.65013C112.257 9.82918 112.663 10.1216 112.986 10.5275C113.356 10.9989 113.619 11.5301 113.75 12.115C113.834 12.491 113.876 12.867 113.888 13.2489C113.995 16.7582 114.097 20.2675 114.025 23.7827C113.995 25.3046 113.935 26.8265 113.852 28.3484C113.78 29.7032 113.732 31.052 113.702 32.4067C113.679 33.5944 113.571 34.7701 113.446 35.9459C113.428 36.113 113.386 36.2801 113.332 36.4412C113.23 36.7396 113.009 36.9306 112.705 37.0142C112.585 37.044 112.454 37.0739 112.328 37.0739C111.653 37.0739 110.972 37.0739 110.297 37.0739C110.255 37.0739 110.213 37.0679 110.171 37.0619C109.592 36.9784 109.323 36.6382 109.263 36.1548C109.227 35.8205 109.221 35.4803 109.221 35.1402C109.221 33.2781 109.239 31.416 109.239 29.554C109.239 28.8796 109.227 28.1992 109.204 27.5248C109.192 27.2323 109.156 26.9339 109.102 26.6415C108.988 26.0327 108.534 25.5911 107.907 25.4777C107.74 25.4479 107.572 25.418 107.405 25.4121C107.154 25.3942 106.897 25.3941 106.64 25.3941C105.368 25.3941 104.101 25.3941 102.829 25.3941C102.578 25.3941 102.321 25.3942 102.07 25.418C101.902 25.43 101.735 25.4598 101.568 25.5016C100.982 25.6508 100.6 26.0089 100.463 26.5997C100.397 26.8862 100.361 27.1846 100.343 27.477C100.319 27.9008 100.313 28.3245 100.313 28.7483C100.313 30.7357 100.313 32.7231 100.313 34.7164C100.313 35.0984 100.313 35.4804 100.301 35.8563C100.301 36.0235 100.271 36.1906 100.236 36.3577C100.17 36.674 99.9667 36.8829 99.668 36.9903C99.5485 37.0321 99.423 37.0679 99.2975 37.0739C98.5806 37.1216 97.8576 37.1216 97.1407 37.0739C97.0152 37.0679 96.8897 37.0321 96.7702 36.9903C96.5133 36.9067 96.3281 36.7277 96.2445 36.477C96.1787 36.2801 96.131 36.0712 96.1011 35.8623C95.9816 34.9373 95.8979 34.0122 95.88 33.0811C95.8442 31.1773 95.7366 29.2735 95.647 27.3756C95.5873 26.1521 95.5454 24.9227 95.4976 23.6992C95.5036 23.6992 95.5156 23.6992 95.5215 23.6992" fill="#977052"/>
<path d="M141.598 9.30369C141.933 9.32159 142.273 9.32159 142.608 9.36336C143.068 9.42304 143.379 9.69162 143.534 10.1273C143.665 10.4854 143.725 10.8614 143.785 11.2374C143.958 12.3236 144.125 13.4098 144.299 14.496C144.526 15.9164 144.747 17.3368 144.98 18.7573C145.034 19.0915 145.099 19.4257 145.177 19.7539C145.213 19.9151 145.285 20.0762 145.356 20.2254C145.452 20.4164 145.595 20.5716 145.78 20.685C146.264 20.9834 146.772 20.7327 146.969 20.3448C147.047 20.1956 147.113 20.0344 147.155 19.8733C147.25 19.5033 147.334 19.1333 147.417 18.7632C147.734 17.313 148.003 15.8567 148.182 14.3886C148.344 13.0398 148.66 11.7208 148.959 10.4018C148.995 10.2407 149.061 10.0796 149.138 9.93035C149.276 9.64984 149.509 9.47676 149.819 9.40514C149.861 9.39321 149.903 9.38127 149.945 9.3753C150.662 9.31562 151.385 9.30965 152.102 9.3753C152.663 9.42305 153.046 9.72145 153.225 10.2586C153.291 10.4615 153.344 10.6644 153.392 10.8733C153.996 13.7321 154.599 16.5849 155.202 19.4436C155.394 20.3567 155.549 21.2758 155.663 22.1949C155.848 23.6631 156.093 25.1253 156.35 26.5875C156.559 27.7573 156.72 28.927 156.828 30.1087C156.983 31.8395 157.15 33.5643 157.371 35.2831C157.401 35.5338 157.419 35.7904 157.425 36.0411C157.425 36.1664 157.395 36.2917 157.359 36.4171C157.282 36.6737 157.108 36.8527 156.857 36.9482C156.738 36.996 156.613 37.0318 156.493 37.0437C155.818 37.1332 155.137 37.1094 154.474 36.9721C154.067 36.8885 153.804 36.6319 153.691 36.2261C153.661 36.1067 153.631 35.9814 153.607 35.8561C153.577 35.689 153.559 35.5218 153.536 35.3547C153.087 31.9111 152.526 28.4854 151.904 25.0716C151.839 24.6956 151.749 24.3256 151.66 23.9555C151.612 23.7467 151.498 23.5616 151.337 23.4184C151.098 23.2035 150.823 23.1379 150.512 23.2453C150.261 23.3348 150.064 23.496 149.945 23.7287C149.849 23.9138 149.76 24.1107 149.712 24.3136C149.598 24.7672 149.497 25.2208 149.413 25.6803C149.09 27.5126 148.768 29.3508 148.463 31.183C148.367 31.7679 148.302 32.3587 148.236 32.9436C148.134 33.8687 147.997 34.7878 147.83 35.7069C147.782 35.9575 147.728 36.2022 147.621 36.435C147.465 36.7632 147.208 36.9781 146.85 37.0318C146.258 37.1153 145.667 37.1094 145.075 37.0199C144.992 37.0079 144.908 36.9781 144.83 36.9542C144.358 36.7871 144.042 36.4588 143.904 35.9874C143.821 35.7068 143.779 35.4084 143.743 35.116C143.588 33.8149 143.438 32.5079 143.283 31.2069C143.122 29.864 142.954 28.5212 142.781 27.1724C142.65 26.122 142.447 25.0835 142.231 24.0451C142.196 23.8779 142.154 23.7168 142.094 23.5557C142.052 23.4363 141.987 23.3289 141.915 23.2214C141.664 22.8514 141.096 22.8156 140.821 23.1618C140.744 23.2573 140.666 23.3587 140.606 23.4721C140.427 23.8123 140.308 24.1764 140.23 24.5464C140.146 24.9582 140.063 25.376 139.997 25.7937C139.674 27.8408 139.352 29.8879 138.963 31.929C138.82 32.675 138.712 33.433 138.659 34.1909C138.611 34.8295 138.503 35.4502 138.336 36.0649C138.288 36.2261 138.228 36.3872 138.151 36.5364C138.031 36.7692 137.834 36.9303 137.571 36.996C137.446 37.0258 137.32 37.0557 137.195 37.0616C136.603 37.0855 136.006 37.0855 135.414 37.0199C135.289 37.0079 135.163 36.9721 135.05 36.9244C134.799 36.8229 134.626 36.6379 134.572 36.3753C134.536 36.2141 134.512 36.0351 134.53 35.874C134.566 35.498 134.62 35.116 134.685 34.746C134.966 33.1584 135.169 31.5649 135.367 29.9714C135.731 27.0709 136.227 24.1943 136.902 21.3534C137.117 20.4463 137.308 19.5331 137.5 18.626C137.972 16.3461 138.527 14.0842 139.149 11.8402C139.298 11.309 139.459 10.7838 139.627 10.2586C139.68 10.0974 139.758 9.94228 139.848 9.80501C139.991 9.58419 140.194 9.43499 140.457 9.38128C140.582 9.35144 140.708 9.32756 140.833 9.32159C141.084 9.31562 141.341 9.32159 141.592 9.32159C141.592 9.30965 141.592 9.29772 141.592 9.29175" fill="#977052"/>
<path d="M181.306 20.8882C182.113 20.8882 182.913 20.8882 183.72 20.8882C184.06 20.8882 184.395 20.8703 184.729 20.7867C185.118 20.6853 185.417 20.4704 185.632 20.1362C185.745 19.9572 185.835 19.7602 185.871 19.5513C185.912 19.3007 185.96 19.05 185.96 18.7993C185.96 17.8683 185.948 16.9373 185.936 16.0062C185.936 15.8391 185.906 15.666 185.877 15.5049C185.691 14.5202 184.855 13.7562 183.863 13.6667C183.612 13.6428 183.355 13.6369 183.104 13.6369C181.874 13.6369 180.649 13.6369 179.418 13.6369C179.161 13.6369 178.91 13.6488 178.659 13.6727C178.319 13.7025 178.002 13.8219 177.709 14.0069C177.225 14.3172 176.915 14.7589 176.747 15.308C176.658 15.5944 176.616 15.8869 176.616 16.1853C176.616 17.1163 176.616 18.0473 176.616 18.9784C176.616 19.229 176.664 19.4857 176.741 19.7244C176.944 20.3451 177.363 20.7211 178.008 20.8285C178.301 20.8763 178.599 20.8942 178.892 20.8942C179.699 20.9001 180.499 20.8942 181.306 20.8942M172.027 23.7052C172.015 22.7741 171.991 21.8431 171.991 20.9121C171.991 19.8139 172.003 18.7098 172.033 17.6117C172.069 16.2151 172.129 14.8186 172.177 13.428C172.183 13.1714 172.189 12.9207 172.213 12.6641C172.29 11.8882 172.553 11.1839 173.037 10.5692C173.39 10.1276 173.826 9.8053 174.363 9.62626C174.889 9.45318 175.427 9.34575 175.983 9.32785C176.323 9.31591 176.664 9.31592 176.998 9.31592C179.836 9.31592 182.674 9.31592 185.512 9.31592C185.895 9.31592 186.277 9.31592 186.653 9.33382C187.209 9.35769 187.747 9.46512 188.266 9.65013C188.756 9.82918 189.163 10.1216 189.485 10.5275C189.856 10.9989 190.119 11.5301 190.25 12.115C190.334 12.491 190.376 12.867 190.387 13.2489C190.495 16.7582 190.597 20.2675 190.525 23.7827C190.495 25.3046 190.435 26.8265 190.352 28.3484C190.28 29.7032 190.232 31.052 190.202 32.4067C190.178 33.5944 190.071 34.7701 189.945 35.9459C189.927 36.113 189.886 36.2801 189.832 36.4412C189.73 36.7396 189.509 36.9306 189.204 37.0142C189.085 37.044 188.954 37.0739 188.828 37.0739C188.153 37.0739 187.472 37.0739 186.797 37.0739C186.755 37.0739 186.713 37.0679 186.671 37.0619C186.092 36.9784 185.823 36.6382 185.763 36.1548C185.721 35.8205 185.721 35.4803 185.721 35.1402C185.721 33.2781 185.739 31.416 185.739 29.554C185.739 28.8796 185.727 28.1992 185.703 27.5248C185.691 27.2323 185.656 26.9339 185.602 26.6415C185.488 26.0327 185.034 25.5911 184.407 25.4777C184.24 25.4479 184.072 25.418 183.905 25.4121C183.654 25.3942 183.397 25.3941 183.14 25.3941C181.868 25.3941 180.601 25.3941 179.328 25.3941C179.077 25.3941 178.821 25.3942 178.57 25.418C178.402 25.43 178.235 25.4598 178.068 25.5016C177.482 25.6508 177.1 26.0089 176.962 26.5997C176.897 26.8862 176.861 27.1846 176.843 27.477C176.819 27.9008 176.819 28.3245 176.813 28.7483C176.813 30.7357 176.813 32.7231 176.813 34.7164C176.813 35.0984 176.813 35.4804 176.801 35.8563C176.801 36.0235 176.771 36.1906 176.735 36.3577C176.67 36.674 176.466 36.8829 176.168 36.9903C176.048 37.0321 175.923 37.0679 175.797 37.0739C175.08 37.1216 174.357 37.1216 173.64 37.0739C173.515 37.0679 173.39 37.0321 173.27 36.9903C173.013 36.9067 172.828 36.7277 172.744 36.477C172.679 36.2801 172.631 36.0712 172.601 35.8623C172.481 34.9373 172.398 34.0122 172.38 33.0811C172.344 31.1773 172.236 29.2735 172.147 27.3756C172.087 26.1521 172.045 24.9227 171.997 23.6992C172.003 23.6992 172.015 23.6992 172.021 23.6992" fill="#977052"/>
<path d="M215.039 25.5967V25.6205C214.406 25.6205 213.772 25.6205 213.133 25.6205C212.84 25.6205 212.541 25.6205 212.249 25.6384C212.081 25.6444 211.914 25.6743 211.747 25.716C211.257 25.8473 210.94 26.1577 210.791 26.6411C210.677 27.0111 210.653 27.3871 210.665 27.7691C210.701 28.8255 210.743 29.8818 210.785 30.9322C210.791 31.0576 210.809 31.1829 210.827 31.3082C210.946 32.2034 211.532 32.842 212.434 33.0509C212.804 33.1404 213.187 33.1822 213.563 33.1882C214.453 33.1882 215.338 33.1882 216.228 33.1822C216.521 33.1822 216.819 33.1404 217.112 33.0987C217.321 33.0688 217.53 33.0211 217.727 32.9435C218.319 32.7286 218.719 32.3109 218.916 31.714C218.958 31.5947 218.988 31.4693 219.012 31.344C219.161 30.598 219.269 29.846 219.329 29.088C219.371 28.539 219.37 27.9899 219.341 27.4408C219.323 27.1484 219.281 26.85 219.185 26.5695C219.024 26.092 218.701 25.7757 218.205 25.6683C217.96 25.6146 217.704 25.5907 217.453 25.5847C216.652 25.5728 215.845 25.5847 215.045 25.5847M214.866 20.9176C215.6 20.9176 216.24 20.9176 216.873 20.9176C217.13 20.9176 217.381 20.9176 217.632 20.8997C217.841 20.8818 218.056 20.852 218.253 20.7923C218.689 20.661 218.976 20.3686 219.132 19.9448C219.173 19.8255 219.203 19.7001 219.221 19.5748C219.412 18.1305 219.287 16.7041 218.946 15.2956C218.887 15.045 218.755 14.8241 218.594 14.6272C218.259 14.2213 217.835 13.9588 217.315 13.8573C217.106 13.8155 216.897 13.7857 216.688 13.7857C215.463 13.7797 214.232 13.7857 213.007 13.7857C212.84 13.7857 212.667 13.8036 212.5 13.8275C212.063 13.8931 211.699 14.0901 211.4 14.4064C211.131 14.6869 210.958 15.0211 210.851 15.3911C210.731 15.7969 210.659 16.2147 210.641 16.6385C210.606 17.3546 210.588 18.0768 210.624 18.793C210.636 19.0018 210.647 19.2167 210.683 19.4256C210.707 19.5927 210.755 19.7538 210.809 19.915C210.976 20.3924 211.305 20.6908 211.801 20.7983C211.968 20.8341 212.135 20.858 212.302 20.858C213.193 20.8818 214.077 20.8997 214.866 20.9117M206.113 22.7618C206.172 20.106 206.232 17.1875 206.316 14.2691C206.346 13.2127 206.423 12.1564 206.489 11.1C206.501 10.8911 206.531 10.6763 206.585 10.4733C206.74 9.89442 207.116 9.51844 207.702 9.38117C207.905 9.33342 208.12 9.30358 208.329 9.30358C209.853 9.2618 211.376 9.16034 212.9 9.17824C214.507 9.19615 216.12 9.18421 217.727 9.17824C218.534 9.17824 219.335 9.23196 220.135 9.34535C220.428 9.38713 220.721 9.44681 221.008 9.51246C221.384 9.60198 221.725 9.77507 222.035 9.99589C222.495 10.3241 222.83 10.7538 223.015 11.291C223.081 11.4879 223.141 11.6968 223.188 11.8997C223.224 12.0668 223.248 12.234 223.272 12.4011C223.511 14.2034 223.684 16.0178 223.798 17.8321C223.822 18.1663 223.822 18.5065 223.834 18.8467C223.852 19.4435 223.798 20.0284 223.66 20.6133C223.547 21.1086 223.439 21.604 223.332 22.0993C223.206 22.6484 223.236 23.1915 223.403 23.7286C223.517 24.0927 223.624 24.4568 223.732 24.8208C223.852 25.2266 223.917 25.6444 223.905 26.0741C223.84 28.7001 223.708 31.3142 223.272 33.9103C223.218 34.2445 223.158 34.5788 223.069 34.907C222.74 36.1185 221.946 36.8646 220.739 37.1809C220.368 37.2764 219.986 37.3182 219.604 37.3241C218.247 37.342 216.897 37.4077 215.541 37.3659C215.2 37.354 214.866 37.342 214.525 37.354C212.619 37.4196 210.713 37.3301 208.807 37.3062C208.598 37.3062 208.383 37.2883 208.174 37.2704C208.048 37.2585 207.923 37.2346 207.798 37.2048C207.266 37.0615 206.919 36.7213 206.752 36.1961C206.716 36.0768 206.686 35.9514 206.662 35.8261C206.632 35.6172 206.603 35.4083 206.591 35.1935C206.459 32.9554 206.238 30.7233 206.196 28.4793C206.178 27.3812 206.125 26.283 206.107 25.1789C206.095 24.4567 206.107 23.7406 206.107 22.7558" fill="#977052"/>
<path d="M252.422 24.326C252.422 22.8459 252.422 21.7 252.422 20.5601C252.422 19.5872 252.399 18.6144 252.387 17.6416C252.387 17.0926 252.339 16.5435 252.249 16.0004C252.195 15.6662 252.112 15.3379 251.974 15.0276C251.61 14.2278 251 13.7683 250.11 13.7026C249.985 13.6907 249.859 13.6907 249.728 13.6847C248.629 13.6847 247.523 13.6847 246.424 13.6847C246.215 13.6847 246 13.6967 245.791 13.7205C245.36 13.7742 244.978 13.9593 244.661 14.2517C244.41 14.4845 244.213 14.765 244.094 15.0872C244.004 15.326 243.932 15.5707 243.885 15.8154C243.747 16.4778 243.693 17.1522 243.693 17.8326C243.693 18.6383 243.693 19.444 243.675 20.2437C243.586 23.8008 243.765 27.3518 243.92 30.9029C243.932 31.1118 243.956 31.3266 244.004 31.5295C244.195 32.3352 244.697 32.8724 245.498 33.1051C245.659 33.1529 245.826 33.1827 245.994 33.2126C246.203 33.2424 246.412 33.2723 246.627 33.2723C247.601 33.2782 248.575 33.2782 249.549 33.2723C249.889 33.2723 250.224 33.2185 250.552 33.129C251.407 32.8903 251.932 32.3293 252.106 31.4639C252.165 31.1774 252.183 30.879 252.195 30.5806C252.243 29.566 252.285 28.5514 252.321 27.5368C252.363 26.3492 252.399 25.1675 252.422 24.32M256.862 23.7948C256.838 25.9911 256.814 28.1933 256.79 30.3896C256.79 30.6821 256.766 30.9805 256.748 31.2789C256.718 31.8279 256.676 32.377 256.647 32.9261C256.617 33.4334 256.551 33.9347 256.419 34.4301C256.33 34.7583 256.216 35.0746 256.073 35.385C255.631 36.3279 254.89 36.9069 253.874 37.1337C253.504 37.2172 253.121 37.259 252.739 37.2649C252.016 37.2769 251.299 37.3008 250.582 37.2948C248.294 37.2948 246.012 37.2769 243.723 37.2709C243.472 37.2709 243.215 37.259 242.965 37.247C242.624 37.2232 242.295 37.1635 241.967 37.068C241.154 36.8293 240.551 36.328 240.138 35.5939C239.864 35.1104 239.702 34.5852 239.595 34.0421C239.505 33.5826 239.469 33.123 239.433 32.6575C239.308 31.0103 239.296 29.3631 239.284 27.7159C239.26 25.2212 239.248 22.7265 239.248 20.2318C239.248 19.0919 239.284 17.952 239.308 16.8061C239.338 15.4931 239.463 14.192 239.619 12.885C239.661 12.5508 239.714 12.2166 239.78 11.8823C239.822 11.6735 239.882 11.4705 239.959 11.2736C240.127 10.826 240.401 10.4559 240.784 10.1695C241.16 9.883 241.578 9.68605 242.038 9.59056C242.827 9.42345 243.628 9.3399 244.434 9.322C244.817 9.31006 245.199 9.31006 245.575 9.31006C247.44 9.31006 249.304 9.31006 251.162 9.31006C252.094 9.31006 253.02 9.38765 253.94 9.56669C254.364 9.65025 254.753 9.79945 255.111 10.0322C255.625 10.3724 255.989 10.82 256.175 11.4109C256.264 11.6914 256.336 11.9838 256.378 12.2703C256.467 12.8969 256.545 13.5296 256.605 14.1562C256.772 15.881 256.844 17.6178 256.844 19.3485C256.844 20.8286 256.844 22.3087 256.844 23.7888C256.844 23.7888 256.85 23.7888 256.856 23.7888" fill="#977052"/>
</svg>
